<svg width="20" height="18" viewBox="0 0 20 18" fill="none" xmlns="http://www.w3.org/2000/svg">
<path d="M19.4323 3.77165C19.3947 3.77035 18.6222 3.74427 17.4884 3.76933V1.44455C17.4884 1.10184 17.1957 0.830038 16.8512 0.858351C14.5903 1.0471 11.7139 2.04612 10 3.86827C8.28612 2.04612 5.40969 1.0471 3.14882 0.858351C2.8049 0.830351 2.51165 1.10094 2.51165 1.44455V3.83219C1.86741 3.80788 1.25804 3.79074 0.605686 3.77157C0.276667 3.76117 0 4.02619 0 4.35953V15.0721C0 15.3816 0.239882 15.6382 0.548745 15.659C2.88867 15.8165 6.80824 15.8342 9.76926 17.0971C10.0331 17.2098 10.27 17.0804 10.2308 17.0971C13.1918 15.8342 17.1106 15.8165 19.4513 15.659C19.7602 15.6382 20.0001 15.3816 20.0001 15.0721V4.35953C20 4.04263 19.749 3.7827 19.4323 3.77165V3.77165ZM16.3119 2.10616V12.188C14.6156 12.5675 12.4658 13.3772 10.5882 15.0941C10.5882 14.5763 10.5882 5.26294 10.5882 4.98286C11.8753 3.37698 14.3128 2.40906 16.3119 2.10616V2.10616ZM3.68812 2.10616C5.68722 2.40906 8.12471 3.37698 9.41177 4.98286V15.0941C7.5342 13.3772 5.38443 12.5675 3.68812 12.188V2.10616ZM1.17647 14.5185V4.96533C1.59769 4.9778 2.0482 4.99188 2.51165 5.00957V12.6675C2.51165 12.9505 2.71322 13.1934 2.99137 13.2456C4.33455 13.4977 6.08122 14.0449 7.70914 15.2232C5.38659 14.7023 2.95553 14.6186 1.17647 14.5185ZM18.8235 14.5185C17.0474 14.6184 14.6143 14.7021 12.2908 15.2232C13.9187 14.0449 15.6655 13.4977 17.0086 13.2456C17.2867 13.1934 17.4883 12.9505 17.4883 12.6675V4.94619C18.0297 4.93408 18.4909 4.93392 18.8235 4.93694V14.5185H18.8235Z" fill="#5A5A5A"/>
<path d="M7.8865 6.33787C7.43089 6.02046 6.64544 5.63085 5.8072 5.48921C5.48701 5.43485 5.18332 5.65089 5.12916 5.97121C5.07504 6.29152 5.29085 6.59509 5.6112 6.64921C6.25838 6.75858 6.87908 7.06983 7.21399 7.30317C7.48046 7.48881 7.84712 7.4234 8.03289 7.15678C8.21857 6.89023 8.15304 6.52356 7.8865 6.33787V6.33787Z" fill="#5A5A5A"/>
<path d="M7.82759 9.65043C7.40842 9.39447 6.58853 8.94529 5.8072 8.81325C5.48701 8.75898 5.18332 8.9749 5.12916 9.29525C5.07504 9.6156 5.29085 9.91913 5.6112 9.97325C6.21987 10.0761 6.93512 10.4839 7.21438 10.6545C7.49199 10.8239 7.85387 10.736 8.023 10.4591C8.19234 10.1818 8.10485 9.8198 7.82759 9.65043V9.65043Z" fill="#5A5A5A"/>
<path d="M12.786 7.30317C13.1209 7.06983 13.7416 6.75858 14.3888 6.64921C14.7091 6.59509 14.9249 6.29152 14.8708 5.97121C14.8167 5.65085 14.513 5.43474 14.1928 5.48921C13.3545 5.63081 12.5691 6.02046 12.1135 6.33787C11.8469 6.52356 11.7814 6.89023 11.9671 7.15678C12.1529 7.42348 12.5197 7.48874 12.786 7.30317V7.30317Z" fill="#5A5A5A"/>
<path d="M14.1927 8.8133C13.4114 8.9453 12.5915 9.39448 12.1723 9.65048C11.8951 9.81981 11.8076 10.1819 11.9769 10.4591C12.1463 10.7363 12.5083 10.8238 12.7856 10.6545C13.0648 10.4839 13.7801 10.0762 14.3887 9.9733C14.7091 9.91919 14.9249 9.61566 14.8708 9.2953C14.8166 8.97495 14.513 8.75883 14.1927 8.8133V8.8133Z" fill="#5A5A5A"/>
</svg>
