<svg width="20" height="20" viewBox="0 0 20 20" fill="none" xmlns="http://www.w3.org/2000/svg">
<path d="M19.2857 15H15.7143V19.2857C15.7143 19.6802 15.3945 20 15 20H0.714299C0.319796 20 0 19.6802 0 19.2857V2.85715C0 1.27918 1.27918 -1.47583e-07 2.85715 -1.47583e-07H17.1428C18.7208 -1.47583e-07 20 1.27918 20 2.85715V14.2857C20 14.6802 19.6802 15 19.2857 15ZM5.71427 16.4286H9.99998C10.3945 16.4286 10.7143 16.1088 10.7143 15.7143C10.7143 15.3198 10.3945 15 9.99998 15H5.71427C5.31976 15 4.99997 15.3198 4.99997 15.7143C4.99997 16.1088 5.31981 16.4286 5.71427 16.4286ZM12.1428 2.85715H3.57141C3.17691 2.85715 2.85711 3.17695 2.85711 3.57145C2.85711 3.96596 3.17691 4.28575 3.57141 4.28575H12.1428C12.5373 4.28575 12.8571 3.96596 12.8571 3.57145C12.8571 3.17695 12.5373 2.85715 12.1428 2.85715ZM12.1428 5.71431H3.57141C3.17691 5.71431 2.85711 6.03411 2.85711 6.42861C2.85711 6.82311 3.17691 7.14291 3.57141 7.14291H12.1428C12.5373 7.14291 12.8571 6.82311 12.8571 6.42861C12.8571 6.03411 12.5373 5.71431 12.1428 5.71431ZM12.1428 8.57142H3.57141C3.17691 8.57142 2.85711 8.89122 2.85711 9.28572C2.85711 9.68022 3.17691 10 3.57141 10H12.1428C12.5373 10 12.8571 9.68022 12.8571 9.28572C12.8571 8.89122 12.5373 8.57142 12.1428 8.57142ZM12.1428 11.4286H3.57141C3.17691 11.4286 2.85711 11.7484 2.85711 12.1429C2.85711 12.5374 3.17691 12.8572 3.57141 12.8572H12.1428C12.5373 12.8572 12.8571 12.5374 12.8571 12.1429C12.8571 11.7484 12.5373 11.4286 12.1428 11.4286ZM18.5714 2.85715C18.5714 2.06819 17.9318 1.4286 17.1428 1.4286C16.3539 1.4286 15.7143 2.06819 15.7143 2.85715V13.5714H18.5714V2.85715H18.5714Z" fill="#5A5A5A"/>
</svg>
